:SAMPLES-PER-SECOND 30
:FULLY-SPECIFIED
:DEGREES
70
root  34.7716324 36.55301492 -14.3251374 9.562152863 -6.247676373 3.512938023
lowerback  -7.969950676 -0.9130920768 -1.15677011
upperback  -3.985840082 -0.6630730033 -3.524679899
thorax  0.3207240105 -0.1623339951 -3.041290045
lowerneck  -5.589789867 -14.49419975 -10.82649994
upperneck  10.35159969 -19.74299812 10.86330032
head  6.204760075 -9.381669998 3.375439882
lclavicle  0 -4.497500157e-015 -2.743230041e-014
lhumerus  -48.37799835 29.93350029 63.00790024
lradius  0.006620147731 -6.507048965e-006 30.05669975
lwrist  4.824992743e-007 -3.790274832e-007 -28.83709908
lhand  -3.50796603e-031 -36.96649933 -10.76809978
lfingers  90 7.125020027 -90
lthumb  94.86715698 -25.59981346 101.1487122
rclavicle  0 -4.497500157e-015 -2.743230041e-014
rhumerus  -45.40319824 -27.24739838 -46.7603035
rradius  -5.16745672e-007 2.214343908e-008 118.4260025
rwrist  -2.867388866e-005 0.1017204151 179.7810059
rhand  -2.981904647e-031 1.559190035 -8.21914959
rfingers  -90 -7.125020027 -90
rthumb  -86.01325226 -7.742751598 -62.64720535
rfemur  -11.69253635 15.18088913 12.39066982
rtibia  -0.2652656138 -1.731370091 18.70231438
rfoot  1.501170754 -23.02606392 -33.7175293
rtoes  4.165094376 19.57178307 -102.2605515
lfemur  -5.583871841 -15.81862926 -21.87741852
ltibia  5.159415245 -0.7377476096 10.56788826
lfoot  0.7910325527 -21.94591522 37.18079758
ltoes  -8.570771217 -18.13880157 -115.8555222
71
root  34.7693586 36.55358562 -14.32014375 9.579908371 -6.26333189 3.531788588
lowerback  -7.947869778 -0.9197750688 -1.17650044
upperback  -3.995959997 -0.6665260196 -3.550879955
thorax  0.2978299856 -0.1630149931 -3.057369947
lowerneck  -5.542190075 -14.5309 -10.75049973
upperneck  10.29119968 -19.79509926 10.83100033
head  6.172279835 -9.409379959 3.354569912
lclavicle  0 -4.497500157e-015 -2.743230041e-014
lhumerus  -48.30699921 29.85000038 63.0243988
lradius  0.006620147731 -6.507048965e-006 30.06547165
lwrist  4.824992743e-007 -3.790274832e-007 -28.67720032
lhand  -3.510337899e-031 -36.93180084 -10.74450016
lfingers  90 7.125020027 -90
lthumb  94.8458252 -25.57791519 101.1094818
rclavicle  0 -4.497500157e-015 -2.743230041e-014
rhumerus  -44.2818985 -27.67470169 -45.90169525
rradius  -5.16745672e-007 2.214343908e-008 118.8030014
rwrist  -2.867388866e-005 0.1017204151 179.2140045
rhand  -2.987797028e-031 1.450719953 -8.131480217
rfingers  -90 -7.125020027 -90
rthumb  -85.99423981 -7.813600063 -62.74712372
rfemur  -11.71979046 15.16710854 12.37093925
rtibia  -0.2727341652 -1.742045999 18.72810745
rfoot  1.503093243 -23.04060936 -33.67435074
rtoes  4.156651497 19.57103348 -102.2353592
lfemur  -5.515616417 -15.82038975 -21.9323616
ltibia  5.232407093 -0.7515812516 10.43172073
lfoot  0.7756298184 -21.85583115 37.17222214
ltoes  -8.570867538 -18.13875771 -115.8325272
72
root  34.76805499 36.55516857 -14.31768823 9.598490715 -6.280781269 3.548658133
lowerback  -7.95154953 -0.9122639298 -1.210140109
upperback  -3.997087479 -0.6521180272 -3.56750989
thorax  0.2995179892 -0.1547439992 -3.054559946
lowerneck  -5.492340088 -14.57149982 -10.69099998
upperneck  10.20870018 -19.85110092 10.80879974
head  6.135560036 -9.439849854 3.339099884
lclavicle  0 -4.497500157e-015 -2.743230041e-014
lhumerus  -48.21730042 29.76490021 63.07300186
lradius  0.006620147731 -6.507048965e-006 30.06875229
lwrist  4.824992743e-007 -3.790274832e-007 -28.52400017
lhand  -3.510009096e-031 -36.91889954 -10.75030041
lfingers  90 7.125020027 -90
lthumb  94.84098053 -25.58407021 101.0961761
rclavicle  0 -4.497500157e-015 -2.743230041e-014
rhumerus  -43.1772995 -28.06000137 -45.19739914
rradius  -5.16745672e-007 2.214343908e-008 119.2470016
rwrist  -2.867388866e-005 0.1017204151 178.9920044
rhand  -2.982831402e-031 1.877159953 -8.203920364
rfingers  -90 -7.125020027 -90
rthumb  -85.9425354 -7.777292252 -62.33698273
rfemur  -11.7684536 15.17300892 12.3643465
rtibia  -0.2913529575 -1.718418956 18.78430939
rfoot  1.505086184 -22.98519707 -33.64204788
rtoes  4.14313364 19.57036972 -102.1950302
lfemur  -5.478692055 -15.84436417 -21.97410202
ltibia  5.282996655 -0.781827867 10.34279919
lfoot  0.7563509941 -21.744133 37.16247559
ltoes  -8.576471329 -18.13617897 -115.8505249
73
root  34.76534866 36.55726515 -14.31510805 9.625225067 -6.297073841 3.558370829
lowerback  -7.9478302 -0.888536036 -1.183890343
upperback  -3.994240046 -0.6190239787 -3.619499922
thorax  0.2995209992 -0.1378230006 -3.120739937
lowerneck  -5.441500187 -14.61390018 -10.65530014
upperneck  10.14239979 -19.91549873 10.84420013
head  6.113379955 -9.470370293 3.342309952
lclavicle  0 -4.497500157e-015 -2.743230041e-014
lhumerus  -48.13650131 29.74340057 63.05889893
lradius  0.006620147731 -6.507048965e-006 30.0497036
lwrist  4.824992743e-007 -3.790274832e-007 -28.51889801
lhand  -3.511117048e-031 -36.92210007 -10.73649979
lfingers  90 7.125020027 -90
lthumb  94.83950806 -25.57036972 101.0982742
rclavicle  0 -4.497500157e-015 -2.743230041e-014
rhumerus  -42.03440094 -28.42909813 -44.50700378
rradius  -5.16745672e-007 2.214343908e-008 119.6060028
rwrist  -2.867388866e-005 0.1017204151 178.8569946
rhand  -2.98377149e-031 2.529230118 -8.186260223
rfingers  -90 -7.125020027 -90
rthumb  -85.80148315 -7.836442471 -61.70170593
rfemur  -11.81604767 15.17047596 12.36515522
rtibia  -0.3052604795 -1.711627007 18.82450294
rfoot  1.50639236 -22.9654789 -33.5824585
rtoes  4.169918537 19.56979179 -102.2749481
lfemur  -5.442527294 -15.83147621 -22.00662041
ltibia  5.338033199 -0.7862585187 10.24536896
lfoot  0.7508342266 -21.68602562 37.15805054
ltoes  -8.604960442 -18.12303352 -115.9420853
74
root  34.76197551 36.55791395 -14.3113339 9.647852898 -6.302883148 3.568061352
lowerback  -7.950520039 -0.8757779598 -1.226869702
upperback  -3.990250349 -0.5983750224 -3.619719982
thorax  0.3048099875 -0.1266839951 -3.095079899
lowerneck  -5.379859924 -14.66259956 -10.69890022
upperneck  10.0625 -19.98319817 10.88850021
head  6.094409943 -9.506569862 3.358819962
lclavicle  0 -4.497500157e-015 -2.743230041e-014
lhumerus  -48.09389877 29.78050041 63.10150146
lradius  0.006620147731 -6.507048965e-006 30.04799652
lwrist  4.824992743e-007 -3.790274832e-007 -28.55999947
lhand  -3.515994407e-031 -36.90420151 -10.68029976
lfingers  90 7.125020027 -90
lthumb  94.81915283 -25.51588631 101.0739975
rclavicle  0 -4.497500157e-015 -2.743230041e-014
rhumerus  -40.84569931 -28.80819893 -43.73420334
rradius  -5.16745672e-007 2.214343908e-008 119.887001
rwrist  -2.867388866e-005 0.1017204151 178.4859924
rhand  -2.996677408e-031 2.327069998 -7.994709969
rfingers  -90 -7.125020027 -90
rthumb  -85.75183868 -7.99185276 -61.88580704
rfemur  -11.83886337 15.10972118 12.358078
rtibia  -0.3093651235 -1.735896945 18.83419609
rfoot  1.506255031 -23.01090622 -33.52699661
rtoes  4.163994789 19.56929588 -102.2572708
lfemur  -5.380774498 -15.84390831 -22.04512787
ltibia  5.410459518 -0.7806512713 10.1182394
lfoot  0.7511402369 -21.64129066 37.17569351
ltoes  -8.567529678 -18.14029312 -115.8218079
